<svg width="0" height="0" class="hidden"><symbol xmlns="http://www.w3.org/2000/svg" viewBox="0 0 24 24" id="facebook-icon"><g clip-path="url(#clip0_1_23)"><path d="M14 19h5V5H5v14h7v-5h-2v-2h2v-1.654c0-1.337.14-1.822.4-2.311A2.72 2.72 0 0113.536 6.9c.382-.205.857-.328 1.687-.381.329-.021.755.005 1.278.08v1.9H16c-.917 0-1.296.043-1.522.164a.727.727 0 00-.314.314c-.12.226-.164.45-.164 1.368V12h2.5l-.5 2h-2v5zM4 3h16a1 1 0 011 1v16a1 1 0 01-1 1H4a1 1 0 01-1-1V4a1 1 0 011-1z"/></g><defs><clipPath id="clip0_1_23"><path d="M0 0h24v24H0z"/></clipPath></defs></symbol><symbol xmlns="http://www.w3.org/2000/svg" viewBox="0 0 24 24" id="instagram-icon"><g clip-path="url(#clip0_1_26)"><path d="M12 9a3 3 0 100 6 3 3 0 000-6zm0-2a5 5 0 110 10 5 5 0 010-10zm6.5-.25a1.25 1.25 0 11-2.5 0 1.25 1.25 0 012.5 0zM12 4c-2.474 0-2.878.007-4.029.058-.784.037-1.31.142-1.798.332a2.886 2.886 0 00-1.08.703 2.89 2.89 0 00-.704 1.08c-.19.49-.295 1.015-.331 1.798C4.006 9.075 4 9.461 4 12c0 2.474.007 2.878.058 4.029.037.783.142 1.31.331 1.797.17.435.37.748.702 1.08.337.336.65.537 1.08.703.494.191 1.02.297 1.8.333C9.075 19.994 9.461 20 12 20c2.474 0 2.878-.007 4.029-.058.782-.037 1.309-.142 1.797-.331a2.92 2.92 0 001.08-.702c.337-.337.538-.65.704-1.08.19-.493.296-1.02.332-1.8.052-1.104.058-1.49.058-4.029 0-2.474-.007-2.878-.058-4.029-.037-.782-.142-1.31-.332-1.798a2.91 2.91 0 00-.703-1.08 2.884 2.884 0 00-1.08-.704c-.49-.19-1.016-.295-1.798-.331C14.925 4.006 14.539 4 12 4zm0-2c2.717 0 3.056.01 4.122.06 1.065.05 1.79.217 2.428.465.66.254 1.216.598 1.772 1.153.509.5.902 1.105 1.153 1.772.247.637.415 1.363.465 2.428.047 1.066.06 1.405.06 4.122 0 2.717-.01 3.056-.06 4.122-.05 1.065-.218 1.79-.465 2.428a4.883 4.883 0 01-1.153 1.772c-.5.508-1.105.902-1.772 1.153-.637.247-1.363.415-2.428.465-1.066.047-1.405.06-4.122.06-2.717 0-3.056-.01-4.122-.06-1.065-.05-1.79-.218-2.428-.465a4.89 4.89 0 01-1.772-1.153 4.904 4.904 0 01-1.153-1.772c-.248-.637-.415-1.363-.465-2.428C2.013 15.056 2 14.717 2 12c0-2.717.01-3.056.06-4.122.05-1.066.217-1.79.465-2.428a4.88 4.88 0 011.153-1.772A4.897 4.897 0 015.45 2.525c.638-.248 1.362-.415 2.428-.465C8.944 2.013 9.283 2 12 2z"/></g><defs><clipPath id="clip0_1_26"><path d="M0 0h24v24H0z"/></clipPath></defs></symbol><symbol fill="none" xmlns="http://www.w3.org/2000/svg" viewBox="0 0 50 50" id="whyus-icon-1"><g clip-path="url(#clip0_1_93)"><path d="M43.75 6.25v4.167c0 20.056-11.194 29.166-25 29.166h-7.827c-.34 1.9-.506 3.973-.506 6.25H6.25c0-2.84.242-5.416.72-7.775-.478-2.696-.72-6.354-.72-10.975 0-11.506 9.327-20.833 20.833-20.833 4.167 0 8.334 2.083 16.667 0zm-16.667 4.167c-9.204 0-16.666 7.462-16.666 16.666 0 .755.006 1.482.02 2.18 2.613-4.121 6.44-7.378 11.446-10.238l2.067 3.617c-5.948 3.4-9.894 7.262-11.917 12.775h6.717c12.531 0 20.565-8.277 20.827-24.192-2.858.277-5.514.1-8.792-.392-2.395-.36-2.866-.416-3.702-.416z" fill="#0E1B1B"/></g><defs><clipPath id="clip0_1_93"><path fill="#fff" d="M0 0h50v50H0z"/></clipPath></defs></symbol><symbol fill="none" xmlns="http://www.w3.org/2000/svg" viewBox="0 0 50 50" id="whyus-icon-2"><path d="M11.104 6.814a7.291 7.291 0 018.863 10.34l22.31 22.313-2.946 2.945L17.02 20.1a7.296 7.296 0 01-10.34-8.865l4.66 4.66a3.126 3.126 0 104.42-4.418l-4.659-4.665.002.002zm21.598 3.925l6.63-3.683 2.945 2.946-3.683 6.63-3.684.737-4.416 4.418-2.948-2.945 4.419-4.42.737-3.683zM18.706 27.681l2.946 2.946-11.048 11.048a2.084 2.084 0 01-3.108-2.765l.162-.18 11.048-11.05z" fill="#0E1B1B"/></symbol><symbol fill="none" xmlns="http://www.w3.org/2000/svg" viewBox="0 0 50 50" id="whyus-icon-3"><g clip-path="url(#clip0_1_103)"><path d="M25 27.083a6.25 6.25 0 014.333 10.755l-3.979 3.829h5.896v4.166h-12.5v-3.591l7.694-7.406a2.084 2.084 0 10-3.527-1.502H18.75a6.25 6.25 0 016.25-6.25zm12.5 0v8.334h4.167v-8.334h4.166v18.75h-4.166v-6.25h-8.334v-12.5H37.5zM8.333 25c0 5.265 2.44 9.958 6.25 13.013v5.033C8.356 39.444 4.167 32.713 4.167 25h4.166zM25 4.167c10.802 0 19.685 8.223 20.73 18.75h-4.192C40.513 14.696 33.5 8.333 25 8.333c-5.73 0-10.783 2.89-13.781 7.292h5.448v4.167h-12.5v-12.5h4.166V12.5c3.8-5.062 9.852-8.333 16.667-8.333z" fill="#0E1B1B"/></g><defs><clipPath id="clip0_1_103"><path fill="#fff" d="M0 0h50v50H0z"/></clipPath></defs></symbol><symbol fill="none" xmlns="http://www.w3.org/2000/svg" viewBox="0 0 80 80" id="clients-icon-1"><g clip-path="url(#clip0_1_117)"><path d="M52.083 48.734c-3.69 5.396-9.093 7.946-15.416 7.946-7.68 0-14.254-5.91-13.31-13.746 1.05-8.694 7.8-12.434 19.026-13.81 2.004-.244 2.834-.314 7.157-.634l.46-.033v-.717c0-5.986-3.56-10.073-8.333-10.073-4.79 0-8.134 2.49-10.184 8.42l-6.3-2.173C28.14 15.347 33.977 11 41.667 11c8.676 0 15 7.26 15 16.74 0 8.83.543 15.854 1.61 18.524 1.186 2.973 1.62 3.723 2.946 5.376l-5.2 4.17c-1.743-2.173-2.51-3.496-3.936-7.073v-.003h-.004zm18.774 19.75c-.904.666-2.474.27-1.764-1.467.884-2.16 1.824-4.693.874-5.84-.7-.85-1.557-1.273-3.424-1.273-1.533 0-2.3.2-3.316.266-.68.044-.977-.99-.304-1.466a9.867 9.867 0 012.9-1.427c3.834-1.147 8.35-.517 8.9.277 1.217 1.766-.663 8.563-3.866 10.933v-.003zm-3.94-3.614a25.184 25.184 0 01-2.767 2.317c-7.073 5.387-16.233 8.2-24.193 8.2-12.81 0-24.267-5.977-32.96-15.983-.744-.767-.127-1.887.743-1.28 9.367 6.923 20.96 11.11 32.963 11.11 7.55 0 15.694-1.79 23.45-5.644.54-.253 1.147-.6 1.677-.846 1.223-.7 2.3 1.02 1.087 2.126zM50.033 35.137c-4.193.313-4.986.377-6.84.603-8.506 1.044-12.656 3.344-13.216 7.994-.42 3.476 2.7 6.28 6.69 6.28 6.796 0 11.723-4.094 13.406-14.877h-.04z" fill="#C4C4C4"/></g><defs><clipPath id="clip0_1_117"><path fill="#fff" d="M0 0h80v80H0z"/></clipPath></defs></symbol><symbol fill="none" xmlns="http://www.w3.org/2000/svg" viewBox="0 0 80 80" id="clients-icon-2"><g clip-path="url(#clip0_1_120)"><path d="M25 36.667a6.667 6.667 0 100-13.334H10v13.334h15zm3.333 6.666H10v13.334h18.333a6.667 6.667 0 100-13.334zm6.877-4.76a13.334 13.334 0 01-6.877 24.76h-25V16.667H25a13.333 13.333 0 0110.21 21.906zM51.667 20H70v5H51.667v-5zm25 28.333h-25v.834A9.167 9.167 0 0069 53.333h7.113A15.84 15.84 0 0145 49.167v-5a15.833 15.833 0 0131.667 0v4.166zm-7.014-6.666a9.17 9.17 0 00-17.64 0h17.64z" fill="#C4C4C4"/></g><defs><clipPath id="clip0_1_120"><path fill="#fff" d="M0 0h80v80H0z"/></clipPath></defs></symbol><symbol fill="none" xmlns="http://www.w3.org/2000/svg" viewBox="0 0 80 80" id="clients-icon-3"><g clip-path="url(#clip0_1_123)"><path d="M40 36.667h28.443c.147 1.283.224 2.6.224 3.946 0 9.114-3.267 16.787-8.927 22-4.95 4.57-11.727 7.25-19.807 7.25A29.92 29.92 0 0110 39.933 29.919 29.919 0 0139.933 10C48 10 54.777 12.967 59.96 17.797l-4.873 4.87c-3.86-3.73-9.077-6-15.087-6a23.334 23.334 0 100 46.666c11.753 0 20.48-8.693 21.923-20H40v-6.666z" fill="#C4C4C4"/></g><defs><clipPath id="clip0_1_123"><path fill="#fff" d="M0 0h80v80H0z"/></clipPath></defs></symbol><symbol fill="none" xmlns="http://www.w3.org/2000/svg" viewBox="0 0 80 80" id="clients-icon-4"><g clip-path="url(#clip0_1_126)"><path d="M40 31.833c3.057-3.123 7.037-5.166 11.667-5.166A18.333 18.333 0 0170 45v25h-6.667V45A11.667 11.667 0 0040 45v25h-6.667V28.333H40v3.5zM16.667 21.667a5 5 0 110-10 5 5 0 010 10zm-3.334 6.666H20V70h-6.667V28.333z" fill="#C4C4C4"/></g><defs><clipPath id="clip0_1_126"><path fill="#fff" d="M0 0h80v80H0z"/></clipPath></defs></symbol><symbol fill="none" xmlns="http://www.w3.org/2000/svg" viewBox="0 0 24 24" id="footer-mail-icon-1"><g clip-path="url(#clip0_1_162)"><path d="M16.1 3a5.022 5.022 0 000 2H4.511l7.55 6.662 5.049-4.52c.426.527.958.966 1.563 1.285l-6.601 5.911L4 7.216V19h16V8.9c.66.134 1.34.134 2 0V20a1 1 0 01-1 1H3a1 1 0 01-1-1V4a1 1 0 011-1h13.1zM21 7a3 3 0 110-6 3 3 0 010 6z" fill="#fff"/></g><defs><clipPath id="clip0_1_162"><path fill="#fff" d="M0 0h24v24H0z"/></clipPath></defs></symbol><symbol fill="none" xmlns="http://www.w3.org/2000/svg" viewBox="0 0 24 24" id="footer-tel-icon-1"><g clip-path="url(#clip0_1_167)"><path d="M9.366 10.682a10.555 10.555 0 003.952 3.952l.884-1.238a1 1 0 011.294-.296 11.422 11.422 0 004.583 1.364 1 1 0 01.921.997v4.462a1 1 0 01-.898.995A15.51 15.51 0 0118.5 21C9.94 21 3 14.06 3 5.5c0-.538.027-1.072.082-1.602A1 1 0 014.077 3h4.462a1 1 0 01.997.921A11.422 11.422 0 0010.9 8.504a1 1 0 01-.296 1.294l-1.238.884zm-2.522-.657l1.9-1.357A13.41 13.41 0 017.647 5H5.01c-.006.166-.009.333-.009.5C5 12.956 11.044 19 18.5 19c.167 0 .334-.003.5-.01v-2.637a13.413 13.413 0 01-3.668-1.097l-1.357 1.9a12.445 12.445 0 01-1.588-.75l-.058-.033a12.556 12.556 0 01-4.702-4.702l-.033-.058a12.444 12.444 0 01-.75-1.588z" fill="#fff"/></g><defs><clipPath id="clip0_1_167"><path fill="#fff" d="M0 0h24v24H0z"/></clipPath></defs></symbol><symbol fill="none" xmlns="http://www.w3.org/2000/svg" viewBox="0 0 24 24" id="footer-loc-icon-1"><g clip-path="url(#clip0_1_170)"><path d="M12 20.9l4.95-4.95a7 7 0 10-9.9 0L12 20.9zm0 2.828l-6.364-6.364a9 9 0 1112.728 0L12 23.728zM12 13a2 2 0 100-4 2 2 0 000 4zm0 2a4 4 0 110-8 4 4 0 010 8z" fill="#fff"/></g><defs><clipPath id="clip0_1_170"><path fill="#fff" d="M0 0h24v24H0z"/></clipPath></defs></symbol></svg>