<svg width="50" height="50" fill="none" xmlns="http://www.w3.org/2000/svg"><g clip-path="url(#clip0_1_103)"><path d="M25 27.083a6.25 6.25 0 014.333 10.755l-3.979 3.829h5.896v4.166h-12.5v-3.591l7.694-7.406a2.084 2.084 0 10-3.527-1.502H18.75a6.25 6.25 0 016.25-6.25zm12.5 0v8.334h4.167v-8.334h4.166v18.75h-4.166v-6.25h-8.334v-12.5H37.5zM8.333 25c0 5.265 2.44 9.958 6.25 13.013v5.033C8.356 39.444 4.167 32.713 4.167 25h4.166zM25 4.167c10.802 0 19.685 8.223 20.73 18.75h-4.192C40.513 14.696 33.5 8.333 25 8.333c-5.73 0-10.783 2.89-13.781 7.292h5.448v4.167h-12.5v-12.5h4.166V12.5c3.8-5.062 9.852-8.333 16.667-8.333z" fill="#0E1B1B"/></g><defs><clipPath id="clip0_1_103"><path fill="#fff" d="M0 0h50v50H0z"/></clipPath></defs></svg>