<svg width="50" height="50" fill="none" xmlns="http://www.w3.org/2000/svg"><g clip-path="url(#clip0_1_93)"><path d="M43.75 6.25v4.167c0 20.056-11.194 29.166-25 29.166h-7.827c-.34 1.9-.506 3.973-.506 6.25H6.25c0-2.84.242-5.416.72-7.775-.478-2.696-.72-6.354-.72-10.975 0-11.506 9.327-20.833 20.833-20.833 4.167 0 8.334 2.083 16.667 0zm-16.667 4.167c-9.204 0-16.666 7.462-16.666 16.666 0 .755.006 1.482.02 2.18 2.613-4.121 6.44-7.378 11.446-10.238l2.067 3.617c-5.948 3.4-9.894 7.262-11.917 12.775h6.717c12.531 0 20.565-8.277 20.827-24.192-2.858.277-5.514.1-8.792-.392-2.395-.36-2.866-.416-3.702-.416z" fill="#0E1B1B"/></g><defs><clipPath id="clip0_1_93"><path fill="#fff" d="M0 0h50v50H0z"/></clipPath></defs></svg>